0.16m3min_grf.mot
version=1
nRows=30
nColumns 19
inDegrees=yes
endheader
time	1_ground_force_vx	1_ground_force_vy	1_ground_force_vz	1_ground_force_px	1_ground_force_py	1_ground_force_pz	1_ground_torque_x	1_ground_torque_y	1_ground_torque_z	2_ground_force_vx	2_ground_force_vy	2_ground_force_vz	2_ground_force_px	2_ground_force_py	2_ground_force_pz	2_ground_torque_x	2_ground_torque_y	2_ground_torque_z
            2.502500	            0.457637	            5.587931	            0.114536	           -0.233013	            0.005581	           -0.255695	            0.480775	           -0.083125	            0.074193	            0.695883	            1.667069	           -2.012294	           -0.232311	            0.006130	           -0.833667	           -0.225378	           -0.047069	           -0.282826
            2.503000	            0.136200	            5.408587	           -0.114720	           -0.233013	            0.005581	           -0.255695	            0.471978	           -0.212851	            0.097578	            0.697794	            1.115294	           -2.201977	           -0.232311	            0.006130	           -0.833667	           -0.150238	           -0.028430	           -0.131989
            2.503500	            0.457068	            5.588914	           -0.114744	           -0.233013	            0.005581	           -0.255695	            0.490646	           -0.342027	            0.091856	            0.507839	            1.850374	           -1.964629	           -0.232311	            0.006130	           -0.833667	           -0.282065	            0.038004	           -0.339049
            2.504000	            0.411420	            5.768778	           -0.022145	           -0.233013	            0.005581	           -0.255695	            0.561628	           -0.443547	            0.051688	            0.649697	            1.482752	           -2.012931	           -0.232311	            0.006130	           -0.833667	           -0.206789	            0.009648	           -0.263781
            2.504500	            0.136997	            5.407210	            0.206271	           -0.233013	            0.005581	           -0.255695	            0.495679	           -0.378894	            0.021615	            0.650300	            1.299106	           -2.154372	           -0.232311	            0.006130	           -0.833667	           -0.300621	           -0.018982	           -0.282693
            2.505000	            0.228536	            5.587690	            0.160961	           -0.233013	            0.005581	           -0.255695	            0.497640	           -0.221957	            0.082580	            0.553963	            2.035193	           -2.104776	           -0.232311	            0.006130	           -0.833667	           -0.169192	            0.000398	           -0.282681
            2.505500	            0.228359	            4.686952	            0.019528	           -0.233013	            0.005581	           -0.255695	            0.466179	           -0.027292	           -0.048062	            0.696444	            1.483758	           -2.247591	           -0.232311	            0.006130	           -0.833667	           -0.150279	           -0.037278	           -0.301674
            2.506000	            0.319815	            5.948829	            0.024711	           -0.233013	            0.005581	           -0.255695	            0.559573	           -0.074013	            0.086957	            0.792803	            0.747503	           -2.250259	           -0.232311	            0.006130	           -0.833667	           -0.225549	            0.009378	           -0.207223
            2.506500	            0.228764	            5.587297	            0.252673	           -0.233013	            0.005581	           -0.255695	            0.474769	           -0.212392	            0.007486	            0.556518	            1.299437	           -2.342045	           -0.232311	            0.006130	           -0.833667	           -0.225565	            0.000329	           -0.320358
            2.507000	           -0.000792	            5.587843	            0.115674	           -0.233013	            0.005581	           -0.255695	            0.555729	           -0.378868	           -0.003203	            0.695780	            1.667906	           -2.246934	           -0.232311	            0.006130	           -0.833667	           -0.206652	           -0.028163	           -0.263916
            2.507500	            0.228309	            5.588084	            0.069249	           -0.233013	            0.005581	           -0.255695	            0.501636	           -0.434638	            0.100457	            0.697109	            1.299609	           -2.248248	           -0.232311	            0.006130	           -0.833667	           -0.188013	            0.018967	           -0.207205
            2.508000	            0.181947	            4.687926	           -0.209638	           -0.233013	            0.005581	           -0.255695	            0.476141	           -0.304863	            0.005163	            0.786054	            2.589823	           -2.478329	           -0.232311	            0.006130	           -0.833667	           -0.263008	           -0.028366	           -0.263892
            2.508500	            0.365203	            5.949625	           -0.158826	           -0.233013	            0.005581	           -0.255695	            0.548407	           -0.147545	           -0.005366	            0.649512	            1.484258	           -2.435284	           -0.232311	            0.006130	           -0.833667	           -0.150253	           -0.046663	           -0.320558
            2.509000	            0.181474	            5.409578	           -0.344114	           -0.233013	            0.005581	           -0.255695	            0.518997	           -0.064451	           -0.012736	            0.650965	            1.114957	           -2.155029	           -0.232311	            0.006130	           -0.833667	           -0.169057	           -0.028229	           -0.207382
            2.509500	            0.182334	            6.309137	            0.072454	           -0.233013	            0.005581	           -0.255695	            0.444557	           -0.101505	            0.006056	            0.695136	            1.851887	           -2.199349	           -0.232311	            0.006130	           -0.833667	           -0.225412	           -0.037616	           -0.282792
            2.510000	           -0.047318	            5.589013	           -0.159348	           -0.233013	            0.005581	           -0.255695	            0.605031	           -0.295779	            0.013874	            0.555874	            1.483418	           -2.294460	           -0.232311	            0.006130	           -0.833667	           -0.225471	           -0.027962	           -0.339309
            2.510500	            0.274298	            5.407630	            0.114218	           -0.233013	            0.005581	           -0.255695	            0.555981	           -0.452850	            0.045810	            0.885256	            1.115468	           -2.061273	           -0.232311	            0.006130	           -0.833667	           -0.206593	           -0.037817	           -0.207399
            2.511000	            0.273714	            4.868013	           -0.163236	           -0.233013	            0.005581	           -0.255695	            0.474380	           -0.416224	            0.121382	            0.743171	            1.484931	           -2.529180	           -0.232311	            0.006130	           -0.833667	           -0.300707	            0.009241	           -0.244891
            2.511500	            0.136964	            5.587476	            0.207044	           -0.233013	            0.005581	           -0.255695	            0.439499	           -0.222250	            0.135208	            0.790912	            1.299111	           -2.013648	           -0.232311	            0.006130	           -0.833667	           -0.262923	           -0.047406	           -0.226259
            2.512000	            0.502731	            5.949651	           -0.159167	           -0.233013	            0.005581	           -0.255695	            0.435926	           -0.129258	            0.057250	            0.650944	            1.115125	           -2.201957	           -0.232311	            0.006130	           -0.833667	           -0.112521	           -0.084540	           -0.264158
            2.512500	            0.319231	            5.409212	           -0.252743	           -0.233013	            0.005581	           -0.255695	            0.515239	           -0.055384	            0.049570	            0.652918	            0.562847	           -2.250857	           -0.232311	            0.006130	           -0.833667	           -0.131561	           -0.018305	           -0.301615
            2.513000	           -0.001116	            4.867566	           -0.070842	           -0.233013	            0.005581	           -0.255695	            0.545244	           -0.138629	            0.016677	            0.693121	            2.404499	           -2.244306	           -0.232311	            0.006130	           -0.833667	           -0.150195	           -0.047134	           -0.188607
            2.513500	            0.044499	            4.867968	           -0.162667	           -0.233013	            0.005581	           -0.255695	            0.530470	           -0.332806	            0.036634	            0.739224	            2.589486	           -2.431381	           -0.232311	            0.006130	           -0.833667	           -0.300672	           -0.009395	           -0.320359
            2.514000	            0.273990	            5.227954	           -0.024123	           -0.233013	            0.005581	           -0.255695	            0.505503	           -0.434136	           -0.010372	            0.459536	            2.219505	           -2.244863	           -0.232311	            0.006130	           -0.833667	           -0.150517	            0.028891	           -0.301438
            2.514500	            0.273532	            6.490207	           -0.110424	           -0.233013	            0.005581	           -0.255695	            0.452371	           -0.388094	            0.027509	            0.883885	            1.484100	           -2.153815	           -0.232311	            0.006130	           -0.833667	           -0.188123	            0.047392	           -0.225954
            2.515000	            0.182499	            5.407809	            0.068590	           -0.233013	            0.005581	           -0.255695	            0.445354	           -0.268208	            0.080563	            0.698438	            0.931313	           -2.249563	           -0.232311	            0.006130	           -0.833667	           -0.244274	           -0.018711	           -0.301567
            2.515500	            0.227982	            6.129274	           -0.020144	           -0.233013	            0.005581	           -0.255695	            0.524048	           -0.092873	            0.158241	            0.882474	            1.853066	           -2.340213	           -0.232311	            0.006130	           -0.833667	           -0.150152	           -0.056654	           -0.169790
            2.516000	            0.182091	            5.768930	           -0.067432	           -0.233013	            0.005581	           -0.255695	            0.469719	           -0.046367	            0.081441	            0.693183	            2.403997	           -2.103522	           -0.232311	            0.006130	           -0.833667	           -0.300494	           -0.047542	           -0.226243
            2.516500	            0.044676	            5.768707	           -0.021235	           -0.233013	            0.005581	           -0.255695	            0.486210	           -0.129052	           -0.056405	            0.694430	            2.036370	           -2.292548	           -0.232311	            0.006130	           -0.833667	           -0.169200	            0.000465	           -0.301531
            2.517000	            0.090992	            5.047063	            0.113127	           -0.233013	            0.005581	           -0.255695	            0.537684	           -0.360987	            0.151232	            0.651609	            0.930976	           -2.202614	           -0.232311	            0.006130	           -0.833667	           -0.150434	            0.019035	           -0.188371
